<svg width="35" height="34" viewBox="0 0 35 34" fill="none" xmlns="http://www.w3.org/2000/svg">
<g clip-path="url(#clip0_44385_133)">
<path d="M13.2283 16.5278C13.2283 17.5717 12.8129 18.5713 12.0752 19.3088L6.71443 24.6685C6.6244 24.7586 6.53279 24.8438 6.43486 24.9228C6.20109 25.117 5.94679 25.2797 5.68144 25.4108C5.13178 25.684 4.53157 25.8198 3.93294 25.8198C2.9268 25.8198 1.91908 25.436 1.15145 24.667C-0.383817 23.132 -0.383817 20.6416 1.15145 19.1051L3.72918 16.5278L1.15145 13.949C-0.383817 12.414 -0.383817 9.92366 1.15145 8.38711C2.37556 7.16324 4.21093 6.91373 5.68144 7.6449C5.94995 7.77755 6.20583 7.94178 6.44276 8.1376C6.53595 8.21656 6.62756 8.29868 6.71443 8.38554L6.93082 8.60188L12.0752 13.7453C12.8144 14.4844 13.2283 15.4856 13.2283 16.5278Z" fill="#1F2937"/>
<path d="M13.2282 16.5278C13.2282 17.5717 12.8128 18.5713 12.0752 19.3088L6.71437 24.6685C6.62434 24.7585 6.53273 24.8438 6.4348 24.9228C6.20103 25.117 5.94673 25.2797 5.68138 25.4107C5.30704 25.226 4.95797 24.978 4.64681 24.6669C3.11154 23.132 3.11154 20.6416 4.64681 19.1051L7.22454 16.5278L4.64839 13.949C3.11312 12.414 3.11312 9.92366 4.64839 8.38712C4.95955 8.07602 5.30862 7.82966 5.68138 7.6449C5.94989 7.77755 6.20577 7.94178 6.4427 8.1376C6.53589 8.21656 6.6275 8.29868 6.71437 8.38554L6.93076 8.60188L12.0752 13.7453C12.8144 14.4844 13.2282 15.4856 13.2282 16.5278Z" fill="#1F2937"/>
<path d="M35 16.5278C35 25.6413 27.5842 33.0555 18.469 33.0555H10.5794C8.50712 33.0555 6.80759 31.4527 6.65753 29.4171C6.64806 29.3208 6.6449 29.2229 6.6449 29.1218C6.6449 26.9504 8.40603 25.188 10.5794 25.188H18.4706C23.247 25.188 27.1341 21.3032 27.1341 16.5262C27.1341 11.7507 23.247 7.86435 18.4706 7.86435H10.5794C8.40761 7.86435 6.6449 6.10356 6.6449 3.9306C6.6449 3.83111 6.64806 3.73162 6.65753 3.63529C6.80759 1.60287 8.50554 0 10.5794 0H18.4706C27.5858 0 35 7.41428 35 16.5278Z" fill="#1F2937"/>
<path d="M6.93081 8.60503C6.75233 8.46922 6.58806 8.3113 6.44275 8.14075C6.53594 8.21971 6.62755 8.30182 6.71442 8.38868L6.93081 8.60503Z" fill="#1F2937"/>
<path d="M6.71438 24.6685C6.62435 24.7585 6.53274 24.8438 6.43481 24.9227C6.58487 24.7443 6.75545 24.5832 6.93867 24.4442L6.71438 24.6685Z" fill="#1F2937"/>
<path d="M29.3469 16.5277C29.3469 24.1442 23.1506 30.3377 15.5343 30.3377H8.93831C8.05064 30.3377 7.24826 29.9872 6.65595 29.4171C6.64647 29.3207 6.64331 29.2228 6.64331 29.1218C6.64331 26.9504 8.40445 25.188 10.5778 25.188H18.469C23.2454 25.188 27.1325 21.3032 27.1325 16.5262C27.1325 11.7507 23.2454 7.86433 18.469 7.86433H10.5794C8.4076 7.86433 6.64489 6.10353 6.64489 3.93057C6.64489 3.83108 6.64805 3.7316 6.65753 3.63527C7.24984 3.06518 8.05222 2.7146 8.93989 2.7146H15.5343C23.1506 2.71776 29.3469 8.91133 29.3469 16.5277Z" fill="#1F2937"/>
</g>
<defs>
<clipPath id="clip0_44385_133">
<rect width="35" height="33.0555" fill="white"/>
</clipPath>
</defs>
</svg>
